HIERARCHY
ROOT Hips
{
  OFFSET 5.80788e-005 67.184 3.4734
  CHANNELS 6 Xposition Yposition Zposition Zrotation Xrotation Yrotation
  JOINT Chest
  {
    OFFSET 0 8.7983 -4.7612
    CHANNELS 3 Zrotation Xrotation Yrotation
    JOINT Chest2
    {
      OFFSET 0 8.0291 0.4195
      CHANNELS 3 Zrotation Xrotation Yrotation
      JOINT Chest3
      {
        OFFSET 0 9.9351 -2.2114
        CHANNELS 3 Zrotation Xrotation Yrotation
        JOINT Neck
        {
          OFFSET 0 22.3885 -0.4656
          CHANNELS 3 Zrotation Xrotation Yrotation
          JOINT Head
          {
            OFFSET -0.0001 12.643 3.4389
            CHANNELS 3 Zrotation Xrotation Yrotation
            End Site
            {
              OFFSET 0.0001 17.6655 0.5274
            }
          }
        }
        JOINT LeftCollar
        {
          OFFSET 2.2603 21.606 7.4023
          CHANNELS 3 Zrotation Xrotation Yrotation
          JOINT LeftShoulder
          {
            OFFSET 13.5163 -1.1332 -5.0146
            CHANNELS 3 Zrotation Xrotation Yrotation
            JOINT LeftElbow
            {
              OFFSET -0.0995 -28.05 -0.2431
              CHANNELS 3 Zrotation Xrotation Yrotation
              JOINT LeftWrist
              {
                OFFSET 0.0679 -23.3996 -0.1402
                CHANNELS 3 Zrotation Xrotation Yrotation
                JOINT LeftFinger1
                {
                  OFFSET 0.7932 -9.069 2.5189
                  CHANNELS 3 Zrotation Xrotation Yrotation
                  JOINT LeftFinger11
                  {
                    OFFSET -0.8272 -3.3923 0.5977
                    CHANNELS 3 Zrotation Xrotation Yrotation
                    JOINT LeftFinger12
                    {
                      OFFSET -0.5649 -2.3158 0.4082
                      CHANNELS 3 Zrotation Xrotation Yrotation
                      End Site
                      {
                        OFFSET -0.4919 -1.6479 0.2673
                      }
                    }
                  }
                }
                JOINT LeftFinger2
                {
                  OFFSET 0.9159 -9.2044 0.2193
                  CHANNELS 3 Zrotation Xrotation Yrotation
                  JOINT LeftFinger21
                  {
                    OFFSET 0.0117 -4.1944 -0.0248
                    CHANNELS 3 Zrotation Xrotation Yrotation
                    JOINT LeftFinger22
                    {
                      OFFSET 0.0071 -2.3249 -0.0142
                      CHANNELS 3 Zrotation Xrotation Yrotation
                      End Site
                      {
                        OFFSET -0.1475 -2.0882 0.0028
                      }
                    }
                  }
                }
                JOINT LeftFinger3
                {
                  OFFSET 0.6113 -8.7231 -2.0637
                  CHANNELS 3 Zrotation Xrotation Yrotation
                  JOINT LeftFinger31
                  {
                    OFFSET -0.1927 -3.8059 -0.2383
                    CHANNELS 3 Zrotation Xrotation Yrotation
                    JOINT LeftFinger32
                    {
                      OFFSET -0.1091 -2.1688 -0.1362
                      CHANNELS 3 Zrotation Xrotation Yrotation
                      End Site
                      {
                        OFFSET -0.2358 -1.9176 -0.0906
                      }
                    }
                  }
                }
                JOINT LeftFinger4
                {
                  OFFSET -0.6151 -8.0947 -3.5641
                  CHANNELS 3 Zrotation Xrotation Yrotation
                  JOINT LeftFinger41
                  {
                    OFFSET -0.4882 -2.341 -0.6462
                    CHANNELS 3 Zrotation Xrotation Yrotation
                    JOINT LeftFinger42
                    {
                      OFFSET -0.3575 -1.7167 -0.4742
                      CHANNELS 3 Zrotation Xrotation Yrotation
                      End Site
                      {
                        OFFSET -0.4187 -1.5237 -0.3496
                      }
                    }
                  }
                }
                JOINT LeftFinger0
                {
                  OFFSET -1.42 -1.8761 1.4223
                  CHANNELS 3 Zrotation Xrotation Yrotation
                  JOINT LeftFinger01
                  {
                    OFFSET -1.1471 -3.4929 2.6334
                    CHANNELS 3 Zrotation Xrotation Yrotation
                    JOINT LeftFinger02
                    {
                      OFFSET -0.823 -2.3 1.6571
                      CHANNELS 3 Zrotation Xrotation Yrotation
                      End Site
                      {
                        OFFSET -0.5822 -1.6914 1.1582
                      }
                    }
                  }
                }
              }
            }
          }
        }
        JOINT RightCollar
        {
          OFFSET -2.2603 21.606 7.4023
          CHANNELS 3 Zrotation Xrotation Yrotation
          JOINT RightShoulder
          {
            OFFSET -13.5187 -1.1334 -5.0155
            CHANNELS 3 Zrotation Xrotation Yrotation
            JOINT RightElbow
            {
              OFFSET 0.0994 -28.0499 -0.2431
              CHANNELS 3 Zrotation Xrotation Yrotation
              JOINT RightWrist
              {
                OFFSET -0.0679 -23.3996 -0.1402
                CHANNELS 3 Zrotation Xrotation Yrotation
                JOINT RightFinger1
                {
                  OFFSET -0.7932 -9.0691 2.5189
                  CHANNELS 3 Zrotation Xrotation Yrotation
                  JOINT RightFinger11
                  {
                    OFFSET 0.8272 -3.3923 0.5977
                    CHANNELS 3 Zrotation Xrotation Yrotation
                    JOINT RightFinger12
                    {
                      OFFSET 0.565 -2.3158 0.4082
                      CHANNELS 3 Zrotation Xrotation Yrotation
                      End Site
                      {
                        OFFSET 0.4919 -1.6479 0.2673
                      }
                    }
                  }
                }
                JOINT RightFinger2
                {
                  OFFSET -0.916 -9.2044 0.2193
                  CHANNELS 3 Zrotation Xrotation Yrotation
                  JOINT RightFinger21
                  {
                    OFFSET -0.0117 -4.1944 -0.0248
                    CHANNELS 3 Zrotation Xrotation Yrotation
                    JOINT RightFinger22
                    {
                      OFFSET -0.0071 -2.3249 -0.0142
                      CHANNELS 3 Zrotation Xrotation Yrotation
                      End Site
                      {
                        OFFSET 0.1475 -2.0882 0.0028
                      }
                    }
                  }
                }
                JOINT RightFinger3
                {
                  OFFSET -0.6113 -8.7231 -2.0637
                  CHANNELS 3 Zrotation Xrotation Yrotation
                  JOINT RightFinger31
                  {
                    OFFSET 0.1927 -3.8059 -0.2383
                    CHANNELS 3 Zrotation Xrotation Yrotation
                    JOINT RightFinger32
                    {
                      OFFSET 0.1091 -2.1688 -0.1362
                      CHANNELS 3 Zrotation Xrotation Yrotation
                      End Site
                      {
                        OFFSET 0.2358 -1.9176 -0.0906
                      }
                    }
                  }
                }
                JOINT RightFinger4
                {
                  OFFSET 0.6151 -8.0947 -3.564
                  CHANNELS 3 Zrotation Xrotation Yrotation
                  JOINT RightFinger41
                  {
                    OFFSET 0.4882 -2.341 -0.6462
                    CHANNELS 3 Zrotation Xrotation Yrotation
                    JOINT RightFinger42
                    {
                      OFFSET 0.3574 -1.7166 -0.4742
                      CHANNELS 3 Zrotation Xrotation Yrotation
                      End Site
                      {
                        OFFSET 0.4187 -1.5237 -0.3496
                      }
                    }
                  }
                }
                JOINT RightFinger0
                {
                  OFFSET 1.4199 -1.8761 1.4221
                  CHANNELS 3 Zrotation Xrotation Yrotation
                  JOINT RightFinger01
                  {
                    OFFSET 1.1472 -3.4929 2.6336
                    CHANNELS 3 Zrotation Xrotation Yrotation
                    JOINT RightFinger02
                    {
                      OFFSET 0.8229 -2.3 1.6571
                      CHANNELS 3 Zrotation Xrotation Yrotation
                      End Site
                      {
                        OFFSET 0.5822 -1.6914 1.1582
                      }
                    }
                  }
                }
              }
            }
          }
        }
      }
    }
  }
  JOINT RightHip
  {
    OFFSET -9.412 3.9771 -0.7758
    CHANNELS 3 Zrotation Xrotation Yrotation
    JOINT RightKnee
    {
      OFFSET -0.7531 -40.938 0
      CHANNELS 3 Zrotation Xrotation Yrotation
      JOINT RightAnkle
      {
        OFFSET 0 -40.1986 0
        CHANNELS 3 Zrotation Xrotation Yrotation
        JOINT RightToe
        {
          OFFSET 0 -4.4182 9.239
          CHANNELS 3 Zrotation Xrotation Yrotation
          End Site
          {
            OFFSET 0 0 6.1981
          }
        }
      }
    }
  }
  JOINT LeftHip
  {
    OFFSET 9.4119 3.9773 -0.7758
    CHANNELS 3 Zrotation Xrotation Yrotation
    JOINT LeftKnee
    {
      OFFSET 0.7532 -40.9383 0
      CHANNELS 3 Zrotation Xrotation Yrotation
      JOINT LeftAnkle
      {
        OFFSET 0 -40.1986 0
        CHANNELS 3 Zrotation Xrotation Yrotation
        JOINT LeftToe
        {
          OFFSET 0 -4.4182 9.239
          CHANNELS 3 Zrotation Xrotation Yrotation
          End Site
          {
            OFFSET 0 0 6.1981
          }
        }
      }
    }
  }
}
MOTION
Frames:	4
Frame Time:	0.0333333
1.64492 30.7955 -0.839944 -6.56131e-009 28.9934 1.35366e-008 -0.293484 2.74409 -0.587317 -0.559722 5.49103 -1.16254 -0.559722 5.49103 -1.16254 -3.01308e-006 -19.0046 -3.50566e-006 -7.91838e-007 15.0059 -9.03818e-008 -13.4097 -6.38122 -29.2888 41.5513 -16.2177 19.6355 -82.0371 -33.4033 -54.085 52.7117 -21.1609 5.67409 -3.18055e-015 -3.18055e-015 2.38542e-015 -3.18055e-015 -1.59028e-015 3.18055e-015 8.82781e-032 -3.18055e-015 1.59028e-015 -3.18055e-015 -3.18055e-015 2.38542e-015 -0.0128215 0.00230229 8.24682e-005 6.9519e-031 1.43125e-014 -2.78299e-015 -3.18055e-015 -3.18055e-015 2.38542e-015 -0.0160573 0.00298034 0.000855806 2.86909e-006 -6.54045e-006 -4.45671e-006 -3.18055e-015 -3.18055e-015 2.38542e-015 -0.0126161 0.00310987 0.0028283 4.37313e-006 -6.53794e-007 -4.09687e-006 -3.18055e-015 -3.18055e-015 2.38542e-015 -3.18055e-015 -1.59028e-015 3.18055e-015 8.82781e-032 -3.18055e-015 1.59028e-015 9.74453 -7.54222 22.5061 -39.5134 -17.3178 -15.6153 81.9172 -33.755 54.6028 -45.1446 -19.9698 -6.77301 -3.18055e-015 3.18055e-015 -0 0 0 -7.95139e-016 1.76556e-031 6.36111e-015 -1.59028e-015 -3.18055e-015 3.18055e-015 -0 0.0129353 0.00230502 -8.46667e-005 2.64834e-031 9.54166e-015 -1.59028e-015 -3.18055e-015 3.18055e-015 -0 0.01632 0.00303673 -0.00086853 -1.6762e-006 -1.53959e-006 -5.51579e-006 -3.18055e-015 3.18055e-015 -0 0.0145664 0.00366753 -0.00325474 0 0 -7.95139e-016 -3.18055e-015 3.18055e-015 -0 0 0 -7.95139e-016 1.76556e-031 6.36111e-015 -1.59028e-015 -9.3409 -31.0959 -19.5676 -171.549 79.7391 169.181 20.4258 46.5294 -28.4357 7.95139e-016 -1.90248e-008 1.59028e-015 9.15746 -30.986 19.3608 172.191 79.9271 -169.728 -19.7164 45.4531 27.8144 8.74653e-015 3.18055e-015 3.18055e-015 
1.64492 30.7936 -1.06233 -9.80168e-008 28.9934 4.00905e-008 -0.292827 2.65621 -0.589096 -0.559169 5.31526 -1.16646 -0.559169 5.31526 -1.16646 -1.93238e-005 -19.0045 -2.395e-005 8.85775e-007 15.1154 -6.26912e-007 -13.4097 -6.38115 -29.2888 41.5513 -16.2177 19.6355 -82.0371 -33.4032 -54.085 53.1701 -20.7496 6.06279 -1.59028e-015 1.43125e-014 -1.19271e-015 -1.59028e-015 1.43125e-014 -3.97569e-016 -1.59028e-015 1.27222e-014 -7.95139e-016 -1.59028e-015 1.43125e-014 -1.19271e-015 -0.0128173 0.00233838 9.96055e-005 -2.20695e-032 1.59028e-015 7.95139e-016 -1.59028e-015 1.43125e-014 -1.19271e-015 -0.016039 0.00301457 0.000858342 3.18055e-015 1.27222e-014 1.19271e-015 -1.59028e-015 1.43125e-014 -1.19271e-015 -0.0126234 0.00314218 0.00285028 1.59028e-015 1.59028e-015 1.19271e-015 -1.59028e-015 1.43125e-014 -1.19271e-015 -1.59028e-015 1.43125e-014 -3.97569e-016 -1.59028e-015 1.27222e-014 -7.95139e-016 9.51347 -7.59129 22.6267 -39.5756 -17.5695 -15.6156 81.9175 -33.755 54.6021 -45.3629 -19.5489 -7.00317 1.59028e-015 0 7.95139e-016 1.59028e-015 3.18055e-015 -7.95139e-016 4.41391e-032 3.18055e-015 -7.95139e-016 1.59028e-015 0 7.95139e-016 0.0129422 0.00231689 -8.71783e-005 -6.36111e-015 0 1.59028e-015 1.59028e-015 0 7.95139e-016 0.0163108 0.00302658 -0.000871751 -3.18055e-015 0 1.59028e-015 1.59028e-015 0 7.95139e-016 0.0145639 0.00368996 -0.00326341 3.18055e-015 2.22639e-014 7.95139e-016 1.59028e-015 0 7.95139e-016 1.59028e-015 3.18055e-015 -7.95139e-016 4.41391e-032 3.18055e-015 -7.95139e-016 -9.38 -31.3985 -19.6357 -171.627 79.46 169.241 20.4381 46.5248 -28.451 3.97959e-007 3.79089e-008 7.43746e-007 9.19626 -31.289 19.4297 172.249 79.645 -169.769 -19.7281 45.4483 27.8294 7.95139e-016 -2.09561e-008 4.77083e-015 
1.64492 30.7917 -1.28472 -5.47166e-008 28.9934 8.12343e-008 -0.292174 2.56836 -0.590873 -0.558631 5.13956 -1.17038 -0.558631 5.13955 -1.17038 -8.47213e-006 -19.0046 -1.0468e-005 -1.70986e-007 15.225 -3.18165e-007 -13.4097 -6.3812 -29.2888 41.5513 -16.2177 19.6355 -82.0371 -33.4032 -54.085 53.6241 -20.3356 6.44692 2.65283e-006 -7.8972e-007 3.32187e-006 2.823e-006 -2.13772e-006 1.5758e-006 -2.58578e-006 -1.7614e-005 -5.57791e-007 2.65283e-006 -7.8972e-007 3.32187e-006 -0.0128174 0.00232847 8.70533e-005 2.03759e-006 -5.13275e-007 2.28531e-006 2.65283e-006 -7.8972e-007 3.32187e-006 -0.0160556 0.00298582 0.000857866 2.03754e-006 -5.53052e-007 2.28534e-006 2.65283e-006 -7.8972e-007 3.32187e-006 -0.0125889 0.00312055 0.00282537 1.7765e-006 -4.04753e-007 -1.78327e-006 2.65283e-006 -7.8972e-007 3.32187e-006 2.823e-006 -2.13772e-006 1.5758e-006 -2.58578e-006 -1.7614e-005 -5.57791e-007 9.28253 -7.64096 22.7471 -39.636 -17.8204 -15.6155 81.917 -33.755 54.6029 -45.5789 -19.1273 -7.23106 -1.59028e-015 0 -7.95139e-016 -3.00058e-006 -3.83449e-007 -1.42434e-006 -0 -6.36111e-015 -0 -1.59028e-015 0 -7.95139e-016 0.0129461 0.00232431 -7.59374e-005 1.59028e-015 0 7.95139e-016 -1.59028e-015 0 -7.95139e-016 0.0163118 0.00302195 -0.000868719 -0 -9.54166e-015 -0 -1.59028e-015 0 -7.95139e-016 0.0145523 0.00366106 -0.00326313 -3.18055e-015 3.18055e-015 -0 -1.59028e-015 0 -7.95139e-016 -3.00058e-006 -3.83449e-007 -1.42434e-006 -0 -6.36111e-015 -0 -9.41933 -31.7017 -19.7043 -171.701 79.1806 169.297 20.4506 46.5203 -28.4665 -6.36111e-015 3.18055e-015 1.59028e-015 9.23566 -31.5914 19.4991 172.303 79.3633 -169.808 -19.7398 45.4435 27.8445 -3.31311e-006 -2.88462e-006 2.24755e-007 
1.64492 30.7898 -1.5071 2.14876e-007 28.9934 6.97094e-008 -0.291518 2.48052 -0.592638 -0.558099 4.96385 -1.17428 -0.558101 4.96387 -1.17428 -9.88149e-006 -19.0046 -1.17734e-005 2.58224e-007 14.7996 9.44055e-007 -13.4097 -6.38119 -29.2888 41.5513 -16.2177 19.6355 -82.0372 -33.4033 -54.085 54.0738 -19.9188 6.82636 -7.72434e-032 1.59028e-015 2.78299e-015 8.82781e-032 -3.18055e-015 1.59028e-015 -0 0 1.98785e-015 -7.72434e-032 1.59028e-015 2.78299e-015 -0.0128225 0.00233722 8.90897e-005 -3.18055e-015 -6.36111e-015 -2.78299e-015 -7.72434e-032 1.59028e-015 2.78299e-015 -0.0160672 0.00300839 0.000864421 -4.41391e-032 -3.18055e-015 -7.95139e-016 -7.72434e-032 1.59028e-015 2.78299e-015 -0.0125813 0.00314719 0.00281953 -3.18055e-015 3.18055e-015 -0 -7.72434e-032 1.59028e-015 2.78299e-015 8.82781e-032 -3.18055e-015 1.59028e-015 -0 0 1.98785e-015 9.05166 -7.69107 22.8673 -39.6979 -18.0718 -15.6159 81.9171 -33.755 54.6026 -45.7925 -18.7049 -7.45665 1.59028e-015 3.18055e-015 2.38542e-015 4.77083e-015 -3.18055e-015 -0 4.77083e-015 -3.18055e-015 -0 1.59028e-015 3.18055e-015 2.38542e-015 0.0129722 0.00229921 -8.38653e-005 -3.18055e-015 -6.36111e-015 1.59028e-015 1.59028e-015 3.18055e-015 2.38542e-015 0.0163319 0.00302577 -0.00087027 3.18055e-015 -9.54166e-015 2.38542e-015 1.59028e-015 3.18055e-015 2.38542e-015 0.0145977 0.0036715 -0.0032713 1.59028e-015 9.54166e-015 -7.95139e-016 1.59028e-015 3.18055e-015 2.38542e-015 4.77083e-015 -3.18055e-015 -0 4.77083e-015 -3.18055e-015 -0 -9.4592 -32.0043 -19.7735 -171.772 78.9015 169.349 20.463 46.5156 -28.4819 2.92152e-006 -8.49647e-007 -8.97219e-007 9.27534 -31.8941 19.5689 172.356 79.0814 -169.845 -19.7516 45.4388 27.8596 -8.29593e-007 -6.14519e-007 1.58268e-006 
